{
  "accessors": [
    {
      "bufferView": 2,
      "componentType": 5126,
      "count": 388,
      "max": [
        1.0478633642196655,
        3.320223569869995,
        1.0478633642196655
      ],
      "min": [
        -1.0478633642196655,
        -0.4723101854324341,
        -1.0478633642196655
      ],
      "type": "VEC3"
    },
    {
      "bufferView": 2,
      "byteOffset": 4656,
      "componentType": 5126,
      "count": 388,
      "max": [
        0.9238796234130859,
        1.0,
        0.9999470114707947
      ],
      "min": [
        -0.9238807559013367,
        -1.0,
        -0.9995285868644714
      ],
      "type": "VEC3"
    },
    {
      "bufferView": 1,
      "componentType": 5126,
      "count": 388,
      "max": [
        1.0,
        1.0000001192092896
      ],
      "min": [
        0.0,
        0.01000000536441803
      ],
      "type": "VEC2"
    },
    {
      "bufferView": 0,
      "componentType": 5125,
      "count": 600,
      "type": "SCALAR"
    },
    {
      "bufferView": 2,
      "byteOffset": 9312,
      "componentType": 5126,
      "count": 32,
      "max": [
        0.9677042365074158,
        2.1701643466949463,
        0.9677042365074158
      ],
      "min": [
        -0.9677042365074158,
        0.5285360813140869,
        -0.9677042365074158
      ],
      "type": "VEC3"
    },
    {
      "bufferView": 2,
      "byteOffset": 9696,
      "componentType": 5126,
      "count": 32,
      "max": [
        0.9106454849243164,
        0.16865293681621552,
        0.9106454253196716
      ],
      "min": [
        -0.9106454849243164,
        0.16865284740924835,
        -0.9106454253196716
      ],
      "type": "VEC3"
    },
    {
      "bufferView": 1,
      "byteOffset": 3104,
      "componentType": 5126,
      "count": 32,
      "max": [
        0.9903289675712585,
        1.0000001192092896
      ],
      "min": [
        0.009671134874224663,
        0.9999999403953552
      ],
      "type": "VEC2"
    },
    {
      "bufferView": 0,
      "byteOffset": 2400,
      "componentType": 5125,
      "count": 48,
      "type": "SCALAR"
    },
    {
      "bufferView": 2,
      "byteOffset": 10080,
      "componentType": 5126,
      "count": 8,
      "max": [
        -0.7981989979743958,
        0.4178268611431122,
        0.29194000363349915
      ],
      "min": [
        -0.9416528344154358,
        -0.424783855676651,
        -0.30168527364730835
      ],
      "type": "VEC3"
    },
    {
      "bufferView": 2,
      "byteOffset": 10176,
      "componentType": 5126,
      "count": 8,
      "max": [
        -0.915244996547699,
        -0.012037350796163082,
        0.40270939469337463
      ],
      "min": [
        -0.9155628681182861,
        -0.012323515489697456,
        -0.40199485421180725
      ],
      "type": "VEC3"
    },
    {
      "bufferView": 1,
      "byteOffset": 3360,
      "componentType": 5126,
      "count": 8,
      "max": [
        0.3016135096549988,
        0.9706200361251831
      ],
      "min": [
        0.1966743767261505,
        0.5246150493621826
      ],
      "type": "VEC2"
    },
    {
      "bufferView": 0,
      "byteOffset": 2592,
      "componentType": 5125,
      "count": 12,
      "type": "SCALAR"
    },
    {
      "bufferView": 2,
      "byteOffset": 10272,
      "componentType": 5126,
      "count": 495,
      "max": [
        1.0,
        4.139357566833496,
        24.806262969970703
      ],
      "min": [
        -1.0,
        -14.213484764099121,
        -24.806262969970703
      ],
      "type": "VEC3"
    },
    {
      "bufferView": 2,
      "byteOffset": 16212,
      "componentType": 5126,
      "count": 495,
      "max": [
        1.0,
        1.0,
        1.0
      ],
      "min": [
        -1.0,
        -1.0,
        -1.0
      ],
      "type": "VEC3"
    },
    {
      "bufferView": 1,
      "byteOffset": 3424,
      "componentType": 5126,
      "count": 495,
      "max": [
        1.0,
        1.0
      ],
      "min": [
        0.0,
        0.0
      ],
      "type": "VEC2"
    },
    {
      "bufferView": 0,
      "byteOffset": 2640,
      "componentType": 5125,
      "count": 1092,
      "type": "SCALAR"
    },
    {
      "bufferView": 2,
      "byteOffset": 22152,
      "componentType": 5126,
      "count": 272,
      "max": [
        1.0,
        1.0,
        24.806262969970703
      ],
      "min": [
        -1.0,
        -1.0,
        -24.806262969970703
      ],
      "type": "VEC3"
    },
    {
      "bufferView": 2,
      "byteOffset": 25416,
      "componentType": 5126,
      "count": 272,
      "max": [
        1.0,
        1.0,
        1.0
      ],
      "min": [
        -1.0,
        -1.0,
        -1.0
      ],
      "type": "VEC3"
    },
    {
      "bufferView": 1,
      "byteOffset": 7384,
      "componentType": 5126,
      "count": 272,
      "max": [
        0.875,
        1.0
      ],
      "min": [
        0.125,
        0.0
      ],
      "type": "VEC2"
    },
    {
      "bufferView": 0,
      "byteOffset": 7008,
      "componentType": 5125,
      "count": 408,
      "type": "SCALAR"
    },
    {
      "bufferView": 3,
      "componentType": 5126,
      "count": 120,
      "max": [
        5.0
      ],
      "min": [
        0.0416666679084301
      ],
      "type": "SCALAR"
    },
    {
      "bufferView": 5,
      "componentType": 5126,
      "count": 120,
      "max": [
        0.7071067690849304,
        0.7068644762039185,
        0.7071068286895752,
        0.7071067094802856
      ],
      "min": [
        -0.7068644762039185,
        -0.7071067690849304,
        1.545430627913902e-08,
        3.793077141267531e-08
      ],
      "type": "VEC4"
    },
    {
      "bufferView": 3,
      "byteOffset": 480,
      "componentType": 5126,
      "count": 69,
      "max": [
        5.0
      ],
      "min": [
        0.0416666679084301
      ],
      "type": "SCALAR"
    },
    {
      "bufferView": 4,
      "componentType": 5126,
      "count": 69,
      "max": [
        1.7631508111953735,
        0.07107684016227722,
        0.07107684016227722
      ],
      "min": [
        1.7631505727767944,
        0.07107684016227722,
        0.07107684016227722
      ],
      "type": "VEC3"
    }
  ],
  "animations": [
    {
      "channels": [
        {
          "sampler": 0,
          "target": {
            "node": 7,
            "path": "rotation"
          }
        },
        {
          "sampler": 1,
          "target": {
            "node": 7,
            "path": "scale"
          }
        }
      ],
      "name": "Action",
      "samplers": [
        {
          "input": 20,
          "interpolation": "LINEAR",
          "output": 21
        },
        {
          "input": 22,
          "interpolation": "LINEAR",
          "output": 23
        }
      ]
    }
  ],
  "asset": {
    "extras": {
      "author": "RaphaelaMarques (https://sketchfab.com/RaphaelaMarques)",
      "license": "CC-BY-4.0 (http://creativecommons.org/licenses/by/4.0/)",
      "source": "https://sketchfab.com/3d-models/lowpoly-windmill-animated-6384cddb416c458f8139105bf8b035d9",
      "title": "Lowpoly Windmill - Animated"
    },
    "generator": "Sketchfab-13.74.0",
    "version": "2.0"
  },
  "bufferViews": [
    {
      "buffer": 0,
      "byteLength": 8640,
      "name": "floatBufferViews",
      "target": 34963
    },
    {
      "buffer": 0,
      "byteLength": 9560,
      "byteOffset": 8640,
      "byteStride": 8,
      "name": "floatBufferViews",
      "target": 34962
    },
    {
      "buffer": 0,
      "byteLength": 28680,
      "byteOffset": 18200,
      "byteStride": 12,
      "name": "floatBufferViews",
      "target": 34962
    },
    {
      "buffer": 0,
      "byteLength": 756,
      "byteOffset": 46880,
      "name": "floatBufferViews"
    },
    {
      "buffer": 0,
      "byteLength": 828,
      "byteOffset": 47636,
      "byteStride": 12,
      "name": "floatBufferViews"
    },
    {
      "buffer": 0,
      "byteLength": 1920,
      "byteOffset": 48464,
      "byteStride": 16,
      "name": "floatBufferViews"
    }
  ],
  "buffers": [
    {
      "byteLength": 50384,
      "uri": "scene.bin"
    }
  ],
  "materials": [
    {
      "doubleSided": true,
      "name": "Material.001",
      "pbrMetallicRoughness": {
        "baseColorFactor": [
          0.23955199999999996,
          0.02947710000000002,
          0.023935599999999998,
          1.0
        ],
        "metallicFactor": 0.0,
        "roughnessFactor": 0.5
      }
    },
    {
      "doubleSided": true,
      "name": "Material.002",
      "pbrMetallicRoughness": {
        "baseColorFactor": [
          0.7999999999999999,
          0.19703100000000007,
          0.024820899999999993,
          1.0
        ],
        "metallicFactor": 0.0,
        "roughnessFactor": 0.5
      }
    },
    {
      "doubleSided": true,
      "name": "Material.003",
      "pbrMetallicRoughness": {
        "baseColorFactor": [
          0.0420272,
          0.006671829999999999,
          0.00110688,
          1.0
        ],
        "metallicFactor": 0.0,
        "roughnessFactor": 0.5104777462178932
      }
    }
  ],
  "meshes": [
    {
      "name": "Object_0",
      "primitives": [
        {
          "attributes": {
            "NORMAL": 1,
            "POSITION": 0,
            "TEXCOORD_0": 2
          },
          "indices": 3,
          "material": 0,
          "mode": 4
        }
      ]
    },
    {
      "name": "Object_1",
      "primitives": [
        {
          "attributes": {
            "NORMAL": 5,
            "POSITION": 4,
            "TEXCOORD_0": 6
          },
          "indices": 7,
          "material": 1,
          "mode": 4
        }
      ]
    },
    {
      "name": "Object_2",
      "primitives": [
        {
          "attributes": {
            "NORMAL": 9,
            "POSITION": 8,
            "TEXCOORD_0": 10
          },
          "indices": 11,
          "material": 2,
          "mode": 4
        }
      ]
    },
    {
      "name": "Object_3",
      "primitives": [
        {
          "attributes": {
            "NORMAL": 13,
            "POSITION": 12,
            "TEXCOORD_0": 14
          },
          "indices": 15,
          "material": 0,
          "mode": 4
        }
      ]
    },
    {
      "name": "Object_4",
      "primitives": [
        {
          "attributes": {
            "NORMAL": 17,
            "POSITION": 16,
            "TEXCOORD_0": 18
          },
          "indices": 19,
          "material": 1,
          "mode": 4
        }
      ]
    }
  ],
  "nodes": [
    {
      "children": [
        1
      ],
      "matrix": [
        1.0,
        0.0,
        0.0,
        0.0,
        0.0,
        2.220446049250313e-16,
        -1.0,
        0.0,
        0.0,
        1.0,
        2.220446049250313e-16,
        0.0,
        0.0,
        0.0,
        0.0,
        1.0
      ],
      "name": "Sketchfab_model"
    },
    {
      "children": [
        2
      ],
      "name": "root"
    },
    {
      "children": [
        3,
        7
      ],
      "matrix": [
        1.0,
        0.0,
        0.0,
        0.0,
        0.0,
        2.220446049250313e-16,
        1.0,
        0.0,
        0.0,
        -1.0,
        2.220446049250313e-16,
        0.0,
        0.0,
        0.0,
        0.0,
        1.0
      ],
      "name": "GLTF_SceneRootNode"
    },
    {
      "children": [
        4,
        5,
        6
      ],
      "name": "Cylinder_2"
    },
    {
      "mesh": 0,
      "name": "Object_4"
    },
    {
      "mesh": 1,
      "name": "Object_5"
    },
    {
      "mesh": 2,
      "name": "Object_6"
    },
    {
      "children": [
        8,
        9
      ],
      "name": "Cube.001_3",
      "rotation": [
        0.4999999701976776,
        -0.5,
        0.5000000596046448,
        0.4999999701976776
      ],
      "scale": [
        1.763150691986084,
        0.07107684016227722,
        0.07107684016227722
      ],
      "translation": [
        -1.3466243743896484,
        2.5426883697509766,
        0.0
      ]
    },
    {
      "mesh": 3,
      "name": "Object_8"
    },
    {
      "mesh": 4,
      "name": "Object_9"
    }
  ],
  "scene": 0,
  "scenes": [
    {
      "name": "Sketchfab_Scene",
      "nodes": [
        0
      ]
    }
  ]
}
